<mxfile host="app.diagrams.net" modified="2022-10-06T18:12:14.581Z" agent="5.0 (Windows NT 10.0; Win64; x64) AppleWebKit/537.36 (KHTML, like Gecko) Chrome/105.0.0.0 Safari/537.36" etag="UOq1QejCEa1fCk60rCQ_" version="20.4.0" type="github">
  <diagram id="G4i6HPmVsRVXJD6xxI-K" name="페이지-1">
    <mxGraphModel dx="1237" dy="683" grid="1" gridSize="10" guides="1" tooltips="1" connect="1" arrows="1" fold="1" page="1" pageScale="1" pageWidth="1169" pageHeight="827" math="0" shadow="0">
      <root>
        <mxCell id="0" />
        <mxCell id="1" parent="0" />
        <mxCell id="cAOIhGvc0PAODWFusS_U-14" value="" style="endArrow=classic;html=1;rounded=0;exitX=0.5;exitY=1;exitDx=0;exitDy=0;startArrow=none;" edge="1" parent="1" source="cAOIhGvc0PAODWFusS_U-7" target="cAOIhGvc0PAODWFusS_U-15">
          <mxGeometry width="50" height="50" relative="1" as="geometry">
            <mxPoint x="250" y="350" as="sourcePoint" />
            <mxPoint x="340" y="440" as="targetPoint" />
          </mxGeometry>
        </mxCell>
        <mxCell id="cAOIhGvc0PAODWFusS_U-16" value="" style="shape=image;verticalLabelPosition=bottom;labelBackgroundColor=default;verticalAlign=top;aspect=fixed;imageAspect=0;image=http://assets.stickpng.com/thumbs/62b31d4bb223544c209f5e86.png;" vertex="1" parent="1">
          <mxGeometry x="320" y="360" width="106" height="106" as="geometry" />
        </mxCell>
        <mxCell id="cAOIhGvc0PAODWFusS_U-25" value="" style="rounded=1;arcSize=10;strokeColor=#F59D56;fillColor=none;gradientColor=none;strokeWidth=2;" vertex="1" parent="1">
          <mxGeometry x="600" y="100.25" width="230" height="429.75" as="geometry" />
        </mxCell>
        <mxCell id="cAOIhGvc0PAODWFusS_U-20" value="" style="endArrow=classic;html=1;rounded=0;startArrow=none;entryX=0;entryY=0.5;entryDx=0;entryDy=0;dashed=1;" edge="1" parent="1" source="cAOIhGvc0PAODWFusS_U-15" target="cAOIhGvc0PAODWFusS_U-33">
          <mxGeometry width="50" height="50" relative="1" as="geometry">
            <mxPoint x="350" y="370" as="sourcePoint" />
            <mxPoint x="390" y="510" as="targetPoint" />
          </mxGeometry>
        </mxCell>
        <mxCell id="cAOIhGvc0PAODWFusS_U-31" value="" style="rounded=1;arcSize=10;dashed=0;fillColor=none;gradientColor=none;strokeWidth=2;strokeColor=#3399FF;" vertex="1" parent="1">
          <mxGeometry x="630" y="120" width="170" height="390" as="geometry" />
        </mxCell>
        <mxCell id="cAOIhGvc0PAODWFusS_U-1" value="" style="dashed=0;outlineConnect=0;html=1;align=center;labelPosition=center;verticalLabelPosition=bottom;verticalAlign=top;shape=mxgraph.weblogos.github" vertex="1" parent="1">
          <mxGeometry x="200" y="320" width="40" height="40" as="geometry" />
        </mxCell>
        <mxCell id="cAOIhGvc0PAODWFusS_U-2" value="" style="shape=image;verticalLabelPosition=bottom;labelBackgroundColor=default;verticalAlign=top;aspect=fixed;imageAspect=0;image=https://img.icons8.com/ios/500/notion.png;" vertex="1" parent="1">
          <mxGeometry x="40" y="320" width="40" height="40" as="geometry" />
        </mxCell>
        <mxCell id="cAOIhGvc0PAODWFusS_U-7" value="" style="shape=image;verticalLabelPosition=bottom;labelBackgroundColor=default;verticalAlign=top;aspect=fixed;imageAspect=0;image=https://gitlab.com/uploads/-/system/project/avatar/20742498/external-content.duckduckgo.com.png;" vertex="1" parent="1">
          <mxGeometry x="300" y="320" width="40" height="40" as="geometry" />
        </mxCell>
        <mxCell id="cAOIhGvc0PAODWFusS_U-8" value="" style="endArrow=classic;html=1;rounded=0;exitX=1;exitY=0.5;exitDx=0;exitDy=0;" edge="1" parent="1" source="cAOIhGvc0PAODWFusS_U-2" target="cAOIhGvc0PAODWFusS_U-1">
          <mxGeometry width="50" height="50" relative="1" as="geometry">
            <mxPoint x="320" y="430" as="sourcePoint" />
            <mxPoint x="370" y="380" as="targetPoint" />
          </mxGeometry>
        </mxCell>
        <mxCell id="cAOIhGvc0PAODWFusS_U-11" value="" style="sketch=0;outlineConnect=0;fontColor=#232F3E;gradientColor=none;strokeColor=#ffffff;fillColor=#232F3E;dashed=0;verticalLabelPosition=middle;verticalAlign=bottom;align=center;html=1;whiteSpace=wrap;fontSize=10;fontStyle=1;spacing=3;shape=mxgraph.aws4.productIcon;prIcon=mxgraph.aws4.ecr;" vertex="1" parent="1">
          <mxGeometry x="440" y="199.5" width="40" height="40" as="geometry" />
        </mxCell>
        <mxCell id="cAOIhGvc0PAODWFusS_U-12" value="" style="endArrow=classic;html=1;rounded=0;dashed=1;" edge="1" parent="1" source="cAOIhGvc0PAODWFusS_U-1">
          <mxGeometry width="50" height="50" relative="1" as="geometry">
            <mxPoint x="90" y="350" as="sourcePoint" />
            <mxPoint x="300" y="340" as="targetPoint" />
          </mxGeometry>
        </mxCell>
        <mxCell id="cAOIhGvc0PAODWFusS_U-15" value="" style="dashed=0;outlineConnect=0;html=1;align=center;labelPosition=center;verticalLabelPosition=bottom;verticalAlign=top;shape=mxgraph.weblogos.github" vertex="1" parent="1">
          <mxGeometry x="440" y="440" width="40" height="40" as="geometry" />
        </mxCell>
        <mxCell id="cAOIhGvc0PAODWFusS_U-17" value="" style="endArrow=classic;html=1;rounded=0;exitX=0.5;exitY=0;exitDx=0;exitDy=0;" edge="1" parent="1" source="cAOIhGvc0PAODWFusS_U-7" target="cAOIhGvc0PAODWFusS_U-11">
          <mxGeometry width="50" height="50" relative="1" as="geometry">
            <mxPoint x="370.0000000000002" y="350" as="sourcePoint" />
            <mxPoint x="490" y="418.57142857142856" as="targetPoint" />
          </mxGeometry>
        </mxCell>
        <mxCell id="cAOIhGvc0PAODWFusS_U-18" value="" style="endArrow=none;html=1;rounded=0;exitX=0.5;exitY=1;exitDx=0;exitDy=0;entryX=0.5;entryY=1;entryDx=0;entryDy=0;" edge="1" parent="1" source="cAOIhGvc0PAODWFusS_U-7" target="cAOIhGvc0PAODWFusS_U-7">
          <mxGeometry width="50" height="50" relative="1" as="geometry">
            <mxPoint x="340" y="360" as="sourcePoint" />
            <mxPoint x="340" y="440" as="targetPoint" />
          </mxGeometry>
        </mxCell>
        <mxCell id="cAOIhGvc0PAODWFusS_U-19" value="" style="shape=image;verticalLabelPosition=bottom;labelBackgroundColor=default;verticalAlign=top;aspect=fixed;imageAspect=0;image=https://blog.kakaocdn.net/dn/J5BnI/btq8KRgd8PI/Mxs15T5o8sBelJDEQK0Ko0/img.png;" vertex="1" parent="1">
          <mxGeometry x="665.5" y="440" width="40" height="40" as="geometry" />
        </mxCell>
        <mxCell id="cAOIhGvc0PAODWFusS_U-26" value="" style="shape=image;verticalLabelPosition=bottom;labelBackgroundColor=default;verticalAlign=top;aspect=fixed;imageAspect=0;image=https://cdn2.iconfinder.com/data/icons/mixd/512/20_kubernetes-512.png;" vertex="1" parent="1">
          <mxGeometry x="640" y="130" width="40" height="40" as="geometry" />
        </mxCell>
        <mxCell id="cAOIhGvc0PAODWFusS_U-21" value="" style="sketch=0;outlineConnect=0;fontColor=#232F3E;gradientColor=none;strokeColor=#ffffff;fillColor=#232F3E;dashed=0;verticalLabelPosition=middle;verticalAlign=bottom;align=center;html=1;whiteSpace=wrap;fontSize=10;fontStyle=1;spacing=3;shape=mxgraph.aws4.productIcon;prIcon=mxgraph.aws4.ec2;" vertex="1" parent="1">
          <mxGeometry x="580" y="340" width="40" height="40" as="geometry" />
        </mxCell>
        <mxCell id="cAOIhGvc0PAODWFusS_U-48" style="edgeStyle=orthogonalEdgeStyle;rounded=0;orthogonalLoop=1;jettySize=auto;html=1;exitX=0.5;exitY=0;exitDx=0;exitDy=0;entryX=0.294;entryY=1.011;entryDx=0;entryDy=0;entryPerimeter=0;" edge="1" parent="1" source="cAOIhGvc0PAODWFusS_U-33" target="cAOIhGvc0PAODWFusS_U-35">
          <mxGeometry relative="1" as="geometry" />
        </mxCell>
        <mxCell id="cAOIhGvc0PAODWFusS_U-33" value="" style="rounded=1;arcSize=10;fillColor=none;gradientColor=none;strokeWidth=2;strokeColor=#00CC66;" vertex="1" parent="1">
          <mxGeometry x="655.5" y="432.25" width="60" height="55.5" as="geometry" />
        </mxCell>
        <mxCell id="cAOIhGvc0PAODWFusS_U-35" value="" style="rounded=1;arcSize=10;fillColor=none;gradientColor=none;strokeWidth=2;strokeColor=#00CC66;" vertex="1" parent="1">
          <mxGeometry x="650" y="190" width="120" height="197.75" as="geometry" />
        </mxCell>
        <mxCell id="cAOIhGvc0PAODWFusS_U-56" style="edgeStyle=orthogonalEdgeStyle;rounded=0;orthogonalLoop=1;jettySize=auto;html=1;exitX=0.995;exitY=0.63;exitDx=0;exitDy=0;exitPerimeter=0;" edge="1" parent="1" source="cAOIhGvc0PAODWFusS_U-38">
          <mxGeometry relative="1" as="geometry">
            <mxPoint x="880" y="225" as="targetPoint" />
          </mxGeometry>
        </mxCell>
        <mxCell id="cAOIhGvc0PAODWFusS_U-38" value="" style="sketch=0;html=1;dashed=0;whitespace=wrap;fillColor=#2875E2;strokeColor=#ffffff;points=[[0.005,0.63,0],[0.1,0.2,0],[0.9,0.2,0],[0.5,0,0],[0.995,0.63,0],[0.72,0.99,0],[0.5,1,0],[0.28,0.99,0]];shape=mxgraph.kubernetes.icon;prIcon=ing" vertex="1" parent="1">
          <mxGeometry x="715.5" y="200.5" width="42.5" height="39" as="geometry" />
        </mxCell>
        <mxCell id="cAOIhGvc0PAODWFusS_U-55" style="edgeStyle=orthogonalEdgeStyle;rounded=0;orthogonalLoop=1;jettySize=auto;html=1;entryX=0.005;entryY=0.63;entryDx=0;entryDy=0;entryPerimeter=0;exitX=0.5;exitY=0;exitDx=0;exitDy=0;exitPerimeter=0;" edge="1" parent="1" source="cAOIhGvc0PAODWFusS_U-39" target="cAOIhGvc0PAODWFusS_U-38">
          <mxGeometry relative="1" as="geometry" />
        </mxCell>
        <mxCell id="cAOIhGvc0PAODWFusS_U-39" value="" style="sketch=0;html=1;dashed=0;whitespace=wrap;fillColor=#2875E2;strokeColor=#ffffff;points=[[0.005,0.63,0],[0.1,0.2,0],[0.9,0.2,0],[0.5,0,0],[0.995,0.63,0],[0.72,0.99,0],[0.5,1,0],[0.28,0.99,0]];shape=mxgraph.kubernetes.icon;prIcon=svc" vertex="1" parent="1">
          <mxGeometry x="658" y="260" width="40" height="38" as="geometry" />
        </mxCell>
        <mxCell id="cAOIhGvc0PAODWFusS_U-53" style="edgeStyle=orthogonalEdgeStyle;rounded=0;orthogonalLoop=1;jettySize=auto;html=1;entryX=0.5;entryY=1;entryDx=0;entryDy=0;entryPerimeter=0;" edge="1" parent="1" source="cAOIhGvc0PAODWFusS_U-40" target="cAOIhGvc0PAODWFusS_U-39">
          <mxGeometry relative="1" as="geometry" />
        </mxCell>
        <mxCell id="cAOIhGvc0PAODWFusS_U-40" value="" style="sketch=0;html=1;dashed=0;whitespace=wrap;fillColor=#2875E2;strokeColor=#ffffff;points=[[0.005,0.63,0],[0.1,0.2,0],[0.9,0.2,0],[0.5,0,0],[0.995,0.63,0],[0.72,0.99,0],[0.5,1,0],[0.28,0.99,0]];shape=mxgraph.kubernetes.icon;prIcon=pod" vertex="1" parent="1">
          <mxGeometry x="657" y="323.13" width="43" height="46.87" as="geometry" />
        </mxCell>
        <mxCell id="cAOIhGvc0PAODWFusS_U-43" value="" style="endArrow=classic;html=1;rounded=0;entryX=0;entryY=0.145;entryDx=0;entryDy=0;entryPerimeter=0;" edge="1" parent="1" source="cAOIhGvc0PAODWFusS_U-11" target="cAOIhGvc0PAODWFusS_U-35">
          <mxGeometry width="50" height="50" relative="1" as="geometry">
            <mxPoint x="350" y="329.9999999999999" as="sourcePoint" />
            <mxPoint x="500" y="220" as="targetPoint" />
          </mxGeometry>
        </mxCell>
        <mxCell id="cAOIhGvc0PAODWFusS_U-57" value="" style="sketch=0;outlineConnect=0;fontColor=#232F3E;gradientColor=none;strokeColor=#ffffff;fillColor=#232F3E;dashed=0;verticalLabelPosition=middle;verticalAlign=bottom;align=center;html=1;whiteSpace=wrap;fontSize=10;fontStyle=1;spacing=3;shape=mxgraph.aws4.productIcon;prIcon=mxgraph.aws4.route_53;" vertex="1" parent="1">
          <mxGeometry x="880" y="199.5" width="40" height="40" as="geometry" />
        </mxCell>
      </root>
    </mxGraphModel>
  </diagram>
</mxfile>
